<svg width="32" height="32" viewBox="0 0 32 32" fill="none" xmlns="http://www.w3.org/2000/svg">
<path d="M6.66663 13.2305C6.66663 19.6996 12.3259 25.0492 14.8309 27.1003C15.1894 27.3938 15.3708 27.5423 15.6382 27.6176C15.8465 27.6763 16.153 27.6763 16.3613 27.6176C16.6293 27.5422 16.8094 27.3951 17.1692 27.1005C19.6742 25.0494 25.3332 19.7002 25.3332 13.2311C25.3332 10.7829 24.3499 8.43473 22.5996 6.70363C20.8492 4.97252 18.4754 4 16.0001 4C13.5247 4 11.1506 4.97267 9.4003 6.70378C7.64996 8.43488 6.66663 10.7823 6.66663 13.2305Z" stroke="#9A9A9A" stroke-width="2.5" stroke-linecap="round" stroke-linejoin="round"/>
<path d="M13.3333 12C13.3333 13.4728 14.5272 14.6667 16 14.6667C17.4727 14.6667 18.6666 13.4728 18.6666 12C18.6666 10.5272 17.4727 9.33333 16 9.33333C14.5272 9.33333 13.3333 10.5272 13.3333 12Z" stroke="#9A9A9A" stroke-width="2.5" stroke-linecap="round" stroke-linejoin="round"/>
</svg>
