<svg width="68" height="68" viewBox="0 0 68 68" fill="none" xmlns="http://www.w3.org/2000/svg">
<path d="M51.7778 50H16.2222C15.6329 50 15.0676 49.7592 14.6509 49.3305C14.2341 48.9019 14 48.3205 14 47.7143V20.2857C14 19.6795 14.2341 19.0981 14.6509 18.6695C15.0676 18.2408 15.6329 18 16.2222 18H51.7778C52.3671 18 52.9324 18.2408 53.3491 18.6695C53.7659 19.0981 54 19.6795 54 20.2857V47.7143C54 48.3205 53.7659 48.9019 53.3491 49.3305C52.9324 49.7592 52.3671 50 51.7778 50ZM22.8889 27.1429L32.6222 35.12C33.0145 35.4389 33.5 35.6123 34 35.6123C34.5 35.6123 34.9855 35.4389 35.3778 35.12L45.1111 27.1429" fill="url(#paint0_linear_20_3378)"/>
<defs>
<linearGradient id="paint0_linear_20_3378" x1="34" y1="18" x2="34" y2="50" gradientUnits="userSpaceOnUse">
<stop stop-color="#7A7FFF"/>
<stop offset="1" stop-color="#4051EC"/>
</linearGradient>
</defs>
</svg>
