<svg width="28" height="28" viewBox="0 0 28 28" fill="none" xmlns="http://www.w3.org/2000/svg">
<path fill-rule="evenodd" clip-rule="evenodd" d="M11.4372 17.7947C12.1657 18.2886 13.0537 18.5872 13.9985 18.5872C16.5029 18.5872 18.5406 16.5312 18.5406 14.0043C18.5406 13.051 18.2446 12.1551 17.7551 11.42L16.5143 12.6719C16.7192 13.0625 16.833 13.5219 16.833 14.0043C16.833 15.5779 15.5581 16.8643 13.9985 16.8643C13.5204 16.8643 13.065 16.7494 12.678 16.5427L11.4372 17.7947ZM21.5003 7.6411C23.1509 9.15725 24.5511 11.2017 25.5984 13.6597C25.6895 13.878 25.6895 14.1307 25.5984 14.3374C23.1623 20.0574 18.8252 23.4802 13.9985 23.4802H13.9871C11.7901 23.4802 9.68411 22.7566 7.82859 21.4357L5.62016 23.664C5.44941 23.8363 5.23312 23.9167 5.01683 23.9167C4.80054 23.9167 4.57287 23.8363 4.4135 23.664C4.12891 23.3768 4.08338 22.9174 4.31105 22.5843L4.3452 22.5384L21.1816 5.55066C21.2043 5.52769 21.2271 5.50472 21.2385 5.48175L21.2385 5.48174C21.2613 5.45877 21.284 5.4358 21.2954 5.41283L22.3655 4.33315C22.707 4.00006 23.242 4.00006 23.5721 4.33315C23.9136 4.66625 23.9136 5.21757 23.5721 5.55066L21.5003 7.6411ZM9.44813 14.0088C9.44813 14.3074 9.48228 14.6061 9.52782 14.8817L5.31588 19.1315C4.17752 17.7991 3.18714 16.1911 2.40168 14.3419C2.31061 14.1351 2.31061 13.8824 2.40168 13.6642C4.83777 7.94422 9.17492 4.5329 13.9902 4.5329H14.0016C15.6294 4.5329 17.2118 4.92342 18.6689 5.65852L14.8667 9.49482C14.5935 9.44887 14.2975 9.41442 14.0016 9.41442C11.4858 9.41442 9.44813 11.4704 9.44813 14.0088Z" fill="#979AA0"/>
</svg>
