<svg width="64" height="64" viewBox="0 0 64 64" fill="none" xmlns="http://www.w3.org/2000/svg">
<g filter="url(#filter0_d_6_36)">
<path d="M54 26.0021C53.9996 30.3532 52.709 34.6065 50.2913 38.2241C47.8737 41.8417 44.4376 44.6611 40.4176 46.3259C36.3976 47.9908 31.9742 48.4261 27.7067 47.577C23.4393 46.7279 19.5195 44.6324 16.4429 41.5556C13.3664 38.4788 11.2713 34.5587 10.4226 30.2912C9.57388 26.0237 10.0097 21.6003 11.6749 17.5805C13.34 13.5606 16.1598 10.1248 19.7777 7.70752C23.3955 5.29022 27.6489 4 32 4C34.8892 4.00014 37.7501 4.56935 40.4194 5.67513C43.0886 6.78091 45.5139 8.40161 47.5568 10.4447C49.5997 12.4878 51.2201 14.9132 52.3257 17.5826C53.4312 20.2519 54.0001 23.1129 54 26.0021Z" fill="url(#paint0_linear_6_36)"/>
<path fill-rule="evenodd" clip-rule="evenodd" d="M28.4207 26.2497V39.7222C28.4207 39.8151 28.4577 39.9042 28.5234 39.9699C28.5891 40.0356 28.6782 40.0725 28.7711 40.0725H33.7707C33.8168 40.0727 33.8625 40.0637 33.9051 40.0462C33.9478 40.0286 33.9865 40.0028 34.0192 39.9703C34.0518 39.9377 34.0777 39.8991 34.0954 39.8565C34.1131 39.8139 34.1222 39.7683 34.1222 39.7222V26.0304H37.7507C37.8386 26.0304 37.9233 25.9975 37.988 25.938C38.0527 25.8786 38.0927 25.797 38.1 25.7094L38.4494 21.5836C38.4533 21.5352 38.4471 21.4865 38.4313 21.4405C38.4155 21.3946 38.3903 21.3524 38.3574 21.3166C38.3245 21.2809 38.2846 21.2523 38.2401 21.2327C38.1956 21.2131 38.1476 21.203 38.099 21.2028H34.1232V18.2771C34.1231 18.1139 34.1551 17.9523 34.2174 17.8015C34.2798 17.6507 34.3713 17.5136 34.4866 17.3982C34.602 17.2827 34.7389 17.1912 34.8897 17.1287C35.0405 17.0662 35.202 17.034 35.3652 17.034H38.1609C38.207 17.0342 38.2526 17.0252 38.2953 17.0077C38.3379 16.9901 38.3767 16.9643 38.4093 16.9318C38.4419 16.8992 38.4679 16.8606 38.4855 16.818C38.5032 16.7754 38.5123 16.7298 38.5123 16.6837V12.5526C38.5123 12.4594 38.4753 12.37 38.4094 12.3041C38.3435 12.2382 38.2541 12.2012 38.1609 12.2012H33.4403C32.7808 12.2013 32.1278 12.3314 31.5186 12.584C30.9094 12.8365 30.3559 13.2067 29.8898 13.6732C29.4236 14.1397 29.054 14.6935 28.8019 15.3029C28.5499 15.9123 28.4203 16.5655 28.4207 17.2249V21.2028H25.9136C25.8676 21.203 25.8221 21.2122 25.7796 21.2299C25.7371 21.2476 25.6986 21.2736 25.6661 21.3062C25.6337 21.3388 25.608 21.3775 25.5905 21.4201C25.5731 21.4626 25.5641 21.5082 25.5643 21.5542V25.6811C25.5641 25.727 25.5731 25.7726 25.5906 25.8151C25.6081 25.8576 25.6338 25.8962 25.6662 25.9288C25.6987 25.9613 25.7372 25.9871 25.7797 26.0048C25.8221 26.0224 25.8676 26.0315 25.9136 26.0315H28.4207V26.2497Z" fill="white"/>
</g>
<defs>
<filter id="filter0_d_6_36" x="0" y="0" width="64" height="64" filterUnits="userSpaceOnUse" color-interpolation-filters="sRGB">
<feFlood flood-opacity="0" result="BackgroundImageFix"/>
<feColorMatrix in="SourceAlpha" type="matrix" values="0 0 0 0 0 0 0 0 0 0 0 0 0 0 0 0 0 0 127 0" result="hardAlpha"/>
<feOffset dy="6"/>
<feGaussianBlur stdDeviation="5"/>
<feComposite in2="hardAlpha" operator="out"/>
<feColorMatrix type="matrix" values="0 0 0 0 0 0 0 0 0 0 0 0 0 0 0 0 0 0 0.14 0"/>
<feBlend mode="normal" in2="BackgroundImageFix" result="effect1_dropShadow_6_36"/>
<feBlend mode="normal" in="SourceGraphic" in2="effect1_dropShadow_6_36" result="shape"/>
</filter>
<linearGradient id="paint0_linear_6_36" x1="16.424" y1="10.424" x2="47.576" y2="41.576" gradientUnits="userSpaceOnUse">
<stop offset="0.026" stop-color="#3E68DD"/>
<stop offset="0.987" stop-color="#3C5A99"/>
</linearGradient>
</defs>
</svg>
