<svg width="64" height="64" viewBox="0 0 64 64" fill="none" xmlns="http://www.w3.org/2000/svg">
<g filter="url(#filter0_d_6_39)">
<path d="M54 26.0052C53.999 30.3562 52.7078 34.6091 50.2898 38.2263C47.8718 41.8435 44.4355 44.6625 40.4154 46.3268C36.3954 47.9912 31.972 48.4261 27.7048 47.5766C23.4376 46.7272 19.518 44.6314 16.4418 41.5545C13.3656 38.4775 11.2708 34.5575 10.4224 30.2901C9.5739 26.0226 10.0099 21.5994 11.6752 17.5798C13.3404 13.5601 16.1602 10.1245 19.778 7.7073C23.3958 5.29014 27.649 4 32 4C37.8352 4.00139 43.431 6.32041 47.5567 10.447C51.6823 14.5737 54 20.17 54 26.0052Z" fill="url(#paint0_linear_6_39)"/>
<path d="M26.8363 23.9969C26.8363 24.0556 26.8258 24.1069 26.8258 24.1562C26.8258 25.3766 26.8258 28.0187 26.8258 28.0187H32.1834C32.0776 28.6281 31.8486 29.2094 31.5105 29.7273C31.1724 30.2452 30.7323 30.6886 30.217 31.0306C29.3492 31.6004 28.3429 31.9237 27.3056 31.9662C26.5727 32.0182 25.8366 31.9329 25.135 31.7147C24.0134 31.3461 23.0245 30.6566 22.291 29.7314C21.5575 28.8063 21.1115 27.6863 21.0084 26.5102C20.9519 25.9028 20.9926 25.2903 21.1289 24.6957C21.4435 23.239 22.2966 21.9548 23.5174 21.1001C24.7382 20.2455 26.2368 19.8833 27.7132 20.0862C28.8166 20.2443 29.8441 20.7397 30.6549 21.5046L33.5673 18.5902C33.0163 18.1046 32.4231 17.6692 31.7947 17.289C30.3518 16.4501 28.7139 16.0047 27.0448 15.9973C26.7242 15.9921 26.4057 16.012 26.0873 16.0246C25.5301 16.0518 24.9774 16.1379 24.4383 16.2812C22.3647 16.7989 20.5107 17.9653 19.1463 19.6104C17.782 21.2555 16.9787 23.2933 16.8536 25.4269C16.7937 26.3308 16.8643 27.2386 17.0631 28.1224C17.5781 30.5347 18.9745 32.6681 20.9791 34.1054C22.5339 35.2503 24.3931 35.909 26.3219 35.9984C27.4255 36.0616 28.5321 35.9524 29.602 35.6747C31.5698 35.1998 33.3107 34.0545 34.5258 32.4355C35.3793 31.2238 35.9724 29.8483 36.2677 28.3959C36.5631 26.9436 36.5542 25.4457 36.2418 23.9969H26.8363Z" fill="white"/>
<path d="M48.3576 24.1279H44.9664V20.6351H42.23V24.1279H38.7415V26.8601H42.23V30.3518H44.9633V26.8601H48.455V24.1279H48.3576Z" fill="white"/>
</g>
<defs>
<filter id="filter0_d_6_39" x="0" y="0" width="64" height="64" filterUnits="userSpaceOnUse" color-interpolation-filters="sRGB">
<feFlood flood-opacity="0" result="BackgroundImageFix"/>
<feColorMatrix in="SourceAlpha" type="matrix" values="0 0 0 0 0 0 0 0 0 0 0 0 0 0 0 0 0 0 127 0" result="hardAlpha"/>
<feOffset dy="6"/>
<feGaussianBlur stdDeviation="5"/>
<feComposite in2="hardAlpha" operator="out"/>
<feColorMatrix type="matrix" values="0 0 0 0 0 0 0 0 0 0 0 0 0 0 0 0 0 0 0.14 0"/>
<feBlend mode="normal" in2="BackgroundImageFix" result="effect1_dropShadow_6_39"/>
<feBlend mode="normal" in="SourceGraphic" in2="effect1_dropShadow_6_39" result="shape"/>
</filter>
<linearGradient id="paint0_linear_6_39" x1="16.424" y1="10.424" x2="47.576" y2="41.576" gradientUnits="userSpaceOnUse">
<stop offset="0.015" stop-color="#FF3B78"/>
<stop offset="0.954" stop-color="#B8103D"/>
<stop offset="0.997" stop-color="#B50F3B"/>
<stop offset="1" stop-color="#CD083F"/>
</linearGradient>
</defs>
</svg>
