<svg width="32" height="32" viewBox="0 0 32 32" fill="none" xmlns="http://www.w3.org/2000/svg">
<path d="M9.33333 12L15.1733 16.6533C15.4087 16.8394 15.7 16.9405 16 16.9405C16.3 16.9405 16.5913 16.8394 16.8267 16.6533L22.6667 12M26.6667 25.3333H5.33333C4.97971 25.3333 4.64057 25.1929 4.39052 24.9428C4.14048 24.6928 4 24.3536 4 24V8.00001C4 7.64638 4.14048 7.30724 4.39052 7.0572C4.64057 6.80715 4.97971 6.66667 5.33333 6.66667H26.6667C27.0203 6.66667 27.3594 6.80715 27.6095 7.0572C27.8595 7.30724 28 7.64638 28 8.00001V24C28 24.3536 27.8595 24.6928 27.6095 24.9428C27.3594 25.1929 27.0203 25.3333 26.6667 25.3333Z" stroke="#979AA0" stroke-width="2.5" stroke-linecap="round" stroke-linejoin="round"/>
</svg>
