<svg width="24" height="24" viewBox="0 0 24 24" fill="none" xmlns="http://www.w3.org/2000/svg">
<path d="M2 22.0001H22M19.98 22.0101V18.0001M3 14.0001H15M9 22.0001V18.2501M15.01 21.9901L3.01 22.0101L3 7.07009C3 6.40009 3.34 5.78009 3.89 5.41009L7.89 2.74009C8.56 2.29009 9.44 2.29009 10.11 2.74009L14.11 5.41009C14.67 5.78009 15 6.40009 15 7.07009L15.01 21.9901ZM20 12.0001C18.9 12.0001 18 12.9001 18 14.0001V16.0001C18 17.1001 18.9 18.0001 20 18.0001C21.1 18.0001 22 17.1001 22 16.0001V14.0001C22 12.9001 21.1 12.0001 20 12.0001Z" stroke="#9A9A9A" stroke-width="2.5" stroke-miterlimit="10" stroke-linecap="round" stroke-linejoin="round"/>
<path d="M9 10.5C9.39782 10.5 9.77936 10.342 10.0607 10.0607C10.342 9.77936 10.5 9.39782 10.5 9C10.5 8.60218 10.342 8.22064 10.0607 7.93934C9.77936 7.65804 9.39782 7.5 9 7.5C8.60218 7.5 8.22064 7.65804 7.93934 7.93934C7.65804 8.22064 7.5 8.60218 7.5 9C7.5 9.39782 7.65804 9.77936 7.93934 10.0607C8.22064 10.342 8.60218 10.5 9 10.5Z" stroke="#9A9A9A" stroke-width="2.5" stroke-miterlimit="10" stroke-linecap="round" stroke-linejoin="round"/>
</svg>
