<svg width="62" height="62" viewBox="0 0 62 62" fill="none" xmlns="http://www.w3.org/2000/svg">
<path fill-rule="evenodd" clip-rule="evenodd" d="M51.6667 28.4167C51.6667 21.1603 51.6667 17.5321 49.9252 14.9258C49.1713 13.7975 48.2026 12.8287 47.0743 12.0748C44.468 10.3333 40.8398 10.3333 33.5834 10.3333H28.4167C21.1603 10.3333 17.5321 10.3333 14.9258 12.0748C13.7975 12.8287 12.8288 13.7975 12.0749 14.9258C10.3334 17.5321 10.3334 21.1603 10.3334 28.4167C10.3334 35.6731 10.3334 39.3012 12.0749 41.9076C12.8288 43.0359 13.7975 44.0046 14.9258 44.7585C17.2026 46.2798 20.2593 46.4722 25.8334 46.4965V46.5L30.1056 55.0445C30.4741 55.7815 31.5259 55.7815 31.8945 55.0445L36.1667 46.5V46.4965C41.7408 46.4722 44.7974 46.2798 47.0743 44.7585C48.2026 44.0046 49.1713 43.0359 49.9252 41.9076C51.6667 39.3012 51.6667 35.6731 51.6667 28.4167ZM20.6667 31C22.0934 31 23.25 29.8434 23.25 28.4167C23.25 26.9899 22.0934 25.8333 20.6667 25.8333C19.24 25.8333 18.0834 26.9899 18.0834 28.4167C18.0834 29.8434 19.24 31 20.6667 31ZM33.5834 28.4167C33.5834 29.8434 32.4268 31 31 31C29.5733 31 28.4167 29.8434 28.4167 28.4167C28.4167 26.9899 29.5733 25.8333 31 25.8333C32.4268 25.8333 33.5834 26.9899 33.5834 28.4167ZM43.9167 28.4167C43.9167 29.8434 42.7601 31 41.3334 31C39.9066 31 38.75 29.8434 38.75 28.4167C38.75 26.9899 39.9066 25.8333 41.3334 25.8333C42.7601 25.8333 43.9167 26.9899 43.9167 28.4167Z" fill="url(#paint0_linear_20_3372)"/>
<defs>
<linearGradient id="paint0_linear_20_3372" x1="31" y1="10.3333" x2="31" y2="55.5973" gradientUnits="userSpaceOnUse">
<stop stop-color="#7A7FFF"/>
<stop offset="1" stop-color="#4051EC"/>
</linearGradient>
</defs>
</svg>
