<svg width="64" height="64" viewBox="0 0 64 64" fill="none" xmlns="http://www.w3.org/2000/svg">
<g filter="url(#filter0_d_6_43)">
<path d="M54 26.001C53.9998 30.3521 52.7094 34.6054 50.292 38.2231C47.8745 41.8408 44.4387 44.6604 40.4188 46.3254C36.3989 47.9905 31.9756 48.4261 27.7081 47.5773C23.4407 46.7285 19.5208 44.6333 16.444 41.5567C13.3673 38.4801 11.2719 34.5603 10.4229 30.2929C9.57389 26.0255 10.0093 21.6021 11.6742 17.5822C13.339 13.5622 16.1585 10.1262 19.776 7.70861C23.3936 5.29102 27.6469 4.00042 31.9979 4C34.8872 3.99986 37.7482 4.56883 40.4177 5.67443C43.0871 6.78002 45.5126 8.40059 47.5557 10.4436C49.5988 12.4866 51.2195 14.912 52.3252 17.5814C53.4309 20.2507 54 23.1117 54 26.001Z" fill="url(#paint0_linear_6_43)"/>
<path d="M45.9128 17.5166C44.942 17.8941 43.9304 18.1569 42.8986 18.2995C43.34 18.2239 43.8539 17.4262 44.1125 17.1035C44.4965 16.6094 44.782 16.046 44.9533 15.444C44.9645 15.4194 44.9669 15.3916 44.96 15.3653C44.9531 15.3391 44.9374 15.316 44.9154 15.3001C44.8887 15.2906 44.8603 15.2868 44.8321 15.289C44.8039 15.2912 44.7764 15.2992 44.7515 15.3127C43.7217 15.8618 42.6271 16.2799 41.4934 16.557C41.4535 16.5695 41.4108 16.5704 41.3703 16.5599C41.3298 16.5493 41.2931 16.5275 41.2643 16.4971C41.1759 16.394 41.0803 16.2971 40.9785 16.2071C40.5081 15.8028 39.9759 15.4766 39.402 15.2412C38.6357 14.9316 37.8095 14.7987 36.9848 14.8524C36.1848 14.9072 35.405 15.1277 34.6947 15.4998C33.9818 15.8716 33.3524 16.3852 32.845 17.009C32.3201 17.655 31.9434 18.4084 31.7415 19.216C31.5696 19.9834 31.5492 20.7771 31.6816 21.5523C31.6994 21.6826 31.6879 21.6994 31.5691 21.6826C27.2668 21.2441 23.283 19.2158 20.3973 15.9948C20.2659 15.8455 20.1966 15.8455 20.0883 16.0063C19.5083 17.0775 19.289 18.3071 19.4627 19.5128C19.6365 20.7185 20.1942 21.8361 21.0531 22.7C21.2738 22.9102 21.4977 23.1151 21.7404 23.3043C20.9894 23.2474 20.257 23.042 19.5859 22.7C19.4546 22.618 19.3894 22.6653 19.3757 22.8135C19.3661 23.0274 19.3777 23.2418 19.4104 23.4535C19.5419 24.4596 19.9382 25.4127 20.5588 26.2154C21.1795 27.0181 22.0021 27.6416 22.9427 28.0221C23.1723 28.1217 23.4124 28.195 23.6585 28.2407C22.962 28.3787 22.2475 28.4004 21.5439 28.3048C21.3905 28.2754 21.3337 28.3531 21.3905 28.5003C21.7524 29.4481 22.3508 30.2875 23.1288 30.9387C23.9067 31.5899 24.8383 32.0312 25.835 32.2207C26.0358 32.2565 26.2365 32.2565 26.4372 32.3016C26.4267 32.3206 26.4131 32.3206 26.4025 32.3384C25.9023 33.0993 24.1713 33.6658 23.3673 33.9454C21.8922 34.4727 20.3203 34.6742 18.7599 34.536C18.5119 34.4992 18.4604 34.5024 18.3931 34.536C18.3258 34.5696 18.3836 34.6411 18.4635 34.701C18.7788 34.9112 19.0941 35.093 19.4241 35.2696C20.4022 35.7923 21.4348 36.2057 22.5034 36.5024C28.0389 38.0316 34.2743 36.908 38.432 32.7767C41.6963 29.5344 42.8408 25.0615 42.8408 20.5854C42.8408 20.411 43.051 20.3143 43.1708 20.2218C44.1665 19.59 45.0765 18.8322 45.8781 17.9674C46.021 17.7762 46.5612 17.6048 46.5612 17.5355V17.5124C46.5623 17.4409 46.0221 17.4661 45.9128 17.5166Z" fill="white"/>
<path fill-rule="evenodd" clip-rule="evenodd" d="M27.0079 37.2276C27.0079 37.1846 27.4872 37.2276 27.0079 37.2276C27.0079 37.2046 27.0657 37.2276 27.0079 37.2276Z" fill="white"/>
</g>
<defs>
<filter id="filter0_d_6_43" x="0" y="0" width="64" height="64" filterUnits="userSpaceOnUse" color-interpolation-filters="sRGB">
<feFlood flood-opacity="0" result="BackgroundImageFix"/>
<feColorMatrix in="SourceAlpha" type="matrix" values="0 0 0 0 0 0 0 0 0 0 0 0 0 0 0 0 0 0 127 0" result="hardAlpha"/>
<feOffset dy="6"/>
<feGaussianBlur stdDeviation="5"/>
<feComposite in2="hardAlpha" operator="out"/>
<feColorMatrix type="matrix" values="0 0 0 0 0 0 0 0 0 0 0 0 0 0 0 0 0 0 0.14 0"/>
<feBlend mode="normal" in2="BackgroundImageFix" result="effect1_dropShadow_6_43"/>
<feBlend mode="normal" in="SourceGraphic" in2="effect1_dropShadow_6_43" result="shape"/>
</filter>
<linearGradient id="paint0_linear_6_43" x1="16.424" y1="10.424" x2="47.576" y2="41.576" gradientUnits="userSpaceOnUse">
<stop offset="0.17" stop-color="#33CCFF"/>
<stop offset="0.998" stop-color="#3E68DD"/>
</linearGradient>
</defs>
</svg>
