<svg width="32" height="32" viewBox="0 0 32 32" fill="none" xmlns="http://www.w3.org/2000/svg">
<g clip-path="url(#clip0_1770_857)">
<path d="M22.6666 13.3333H9.33331V10.6667C9.33331 8.89855 10.0357 7.20286 11.2859 5.95262C12.5362 4.70238 14.2319 4 16 4V4C17.1689 3.99867 18.3176 4.30471 19.3309 4.88743C20.3442 5.47014 21.1865 6.30904 21.7733 7.32" stroke="#979AA0" stroke-width="2.5" stroke-linecap="round" stroke-linejoin="round"/>
<path d="M16 22.6667V21.3333M25.3334 14.6667V18.28C25.3716 20.7557 24.4505 23.1502 22.7629 24.9621C21.0754 26.7739 18.7522 27.8625 16.28 28C15.031 28.0375 13.7872 27.8238 12.6223 27.3715C11.4574 26.9193 10.3952 26.2378 9.4986 25.3673C8.60204 24.4969 7.88941 23.4553 7.40295 22.3043C6.9165 21.1532 6.66613 19.9163 6.66669 18.6667V14.6667C6.66669 14.313 6.80716 13.9739 7.05721 13.7239C7.30726 13.4738 7.6464 13.3333 8.00002 13.3333H24C24.3536 13.3333 24.6928 13.4738 24.9428 13.7239C25.1929 13.9739 25.3334 14.313 25.3334 14.6667Z" stroke="#979AA0" stroke-width="2.5" stroke-linecap="round" stroke-linejoin="round"/>
<path d="M15.9333 20H16.0667" stroke="#979AA0" stroke-width="3" stroke-linecap="round" stroke-linejoin="round"/>
</g>
<defs>
<clipPath id="clip0_1770_857">
<rect width="32" height="32" fill="white"/>
</clipPath>
</defs>
</svg>
