<svg width="32" height="32" viewBox="0 0 32 32" fill="none" xmlns="http://www.w3.org/2000/svg">
<path d="M22.6667 10.6667C22.6667 11.9852 22.2757 13.2741 21.5432 14.3705C20.8106 15.4668 19.7694 16.3213 18.5513 16.8259C17.3331 17.3304 15.9926 17.4625 14.6994 17.2052C13.4062 16.948 12.2183 16.3131 11.286 15.3807C10.3536 14.4484 9.71871 13.2605 9.46147 11.9673C9.20424 10.6741 9.33626 9.33362 9.84084 8.11544C10.3454 6.89727 11.1999 5.85608 12.2962 5.12354C13.3926 4.39099 14.6815 4 16 4C17.7682 4 19.4638 4.70238 20.7141 5.95262C21.9643 7.20286 22.6667 8.89856 22.6667 10.6667ZM17.3334 17.3333H14.6667C12.1914 17.3333 9.81738 18.3167 8.06704 20.067C6.3167 21.8173 5.33337 24.1913 5.33337 26.6667V26.6667C5.33337 27.0203 5.47385 27.3594 5.7239 27.6095C5.97395 27.8595 6.31309 28 6.66671 28H25.3334C25.687 28 26.0261 27.8595 26.2762 27.6095C26.5262 27.3594 26.6667 27.0203 26.6667 26.6667C26.6667 24.1913 25.6834 21.8173 23.933 20.067C22.1827 18.3167 19.8087 17.3333 17.3334 17.3333V17.3333Z" stroke="#9A9A9A" stroke-width="2.5" stroke-linecap="round" stroke-linejoin="round"/>
</svg>
